# xmcd
#
# Track frame offsets:
#	150
#	6932
#	19327
#	40227
#	54410
#	66270
#	76952
#	88910
#	111910
#	124542
#	133222
#	144212
#	156222
#	169342
#	188837
#	201847
#	215257
#	227570
#	244887
#	256117
#
# Disc length: 3604 seconds
#
# Revision: 1
# Processed by: cddbd v1.5.2PL0 Copyright (c) Steve Scherf et al.
# Submitted via: audiograbber 1.83.01
#
DISCID=170e1214
DTITLE=Various Artist - Texas Blues Greats - Country blues
DYEAR=1997
DGENRE=Country
TTITLE0=Mance Lipscomb - Buck Dance
TTITLE1=Little Brother Willie Lane - Howling Wolf Blues
TTITLE2=Billy Bizor - T Model Ford
TTITLE3=Rattlesnake Cooper - Rattlesnake Blues
TTITLE4=Manny Nichols - Walking Talking Blues
TTITLE5=Smokey Hogg - Penitentiary Blues
TTITLE6=Texas Alexander - Crossroads
TTITLE7=Lightnin' Hopkins - Rainy Day In Houston
TTITLE8=Leroy "Country" Jackson - Log House On The Hill
TTITLE9=Juke Boy Bonner - A Distant Feel
TTITLE10=Little Brother Willie Lane - Too Many Women Blues
TTITLE11=Mr Honey - Who May Your Regular Be
TTITLE12=Frankie Lee Sims - Single Man Blues
TTITLE13=Peppermint Harris - Black Widow Spider
TTITLE14=Lightnin' Hopkins - War Is Starting Again
TTITLE15=L.C. Williams With Lightnin' Hopkins - All Through My Dreams
TTITLE16=Willie Lane - Prowlin' Ground Hog
TTITLE17=Riley Taylor - Long Lonesome Road - Amazing Grace
TTITLE18=Mr Honey - Build A Cave
TTITLE19=Jesse Thomas - No Job Blues
EXTD=
EXTT0=
EXTT1=
EXTT2=
EXTT3=
EXTT4=
EXTT5=
EXTT6=
EXTT7=
EXTT8=
EXTT9=
EXTT10=
EXTT11=
EXTT12=
EXTT13=
EXTT14=
EXTT15=
EXTT16=
EXTT17=
EXTT18=
EXTT19=
PLAYORDER=
